<svg width="25" height="25" xmlns="http://www.w3.org/2000/svg" style="background-color:#70483c">
 <g id="Layer_1">
  <title>Layer 1</title>
  <path d="m0,0.2c0,0 0.16161,-0.08839 0.25,0c0.08839,0.08839 0.13452,0.07716 0.25,0.125c0.16332,0.06765 0.125,0.25 0.25,0.25c0.125,0 0.125,0.125 0.25,0.125c0.125,0 0.25,0 0.25,0c0,0 0.125,0 0.25,0c0.125,0 0.25,0 0.25,0c0.125,0 0.25,-0.125 0.375,-0.125c0.125,0 0.03661,-0.03661 0.125,-0.125c0.08839,-0.08839 0.25,0 0.375,-0.125c0.125,-0.125 0.125,-0.125 0.25,-0.125c0.125,0 0.25,0 0.375,0c0,0 0.125,0 0.25,0c0.125,0 0.25,0 0.25,0.125c0,0 0.03661,0.03661 0.125,0.125c0.08839,0.08839 0.03661,0.16161 0.125,0.25c0.08839,0.08839 0.16161,-0.08839 0.25,0c0.08839,0.08839 -0.08839,0.16161 0,0.25c0.08839,0.08839 0.125,0.125 0.25,0.125c0.125,0 0.25,0 0.25,0c0.125,0 0.25,0 0.375,0c0.125,0 0.125,0 0.25,0c0.25,0 0.375,0 0.375,0c0.125,0 0.25,0 0.5,-0.125c0,0 0.08668,-0.05735 0.25,-0.125c0.11548,-0.04784 0.25,-0.125 0.25,-0.125c0.125,0 0.13452,0.04784 0.25,0c0.16332,-0.06765 0.25,-0.125 0.25,-0.125c0,-0.125 0.125,-0.125 0.25,-0.125c0.125,0 0.16161,-0.16161 0.25,-0.25c0.08839,-0.08839 0.375,0 0.375,0c0.125,0 0.125,0 0.25,0c0.125,0 0.25,-0.125 0.375,-0.125c0,0 0.125,0 0.25,0c0.125,0 0.125,0.125 0.25,0.125c0.125,0 0.38451,0.07716 0.5,0.125c0.32664,0.1353 0.46168,0.30735 0.625,0.375c0.11549,0.04784 0.13451,-0.04784 0.25,0c0.16332,0.06765 0.125,0.125 0.25,0.125c0.125,0 0.28661,0.03661 0.375,0.125c0.08839,0.08839 0.125,0.125 0.25,0.125c0.125,0 0.25,0 0.25,0c0.125,0 0.25,0 0.375,0c0.125,0 0.375,0 0.625,0c0,0 0.125,0 0.25,0c0.125,0 0.25,0 0.25,0c0.125,0 0.25,-0.125 0.375,-0.125c0.125,0 0.125,0 0.375,0c0.25,0 0.33668,-0.05735 0.5,-0.125c0.11549,-0.04784 0.16161,-0.03661 0.25,-0.125c0.08839,-0.08839 0.25,0 0.375,0c0.125,0 0.125,0 0.25,0c0.125,0 0.25951,0.04784 0.375,0c0.16332,-0.06765 0.375,-0.125 0.5,-0.125c0,0 0.125,0 0.25,0c0.25,0 0.25,0 0.375,0c0.25,0 0.375,0 0.375,0c0.125,0.125 0.25952,0.07716 0.375,0.125c0.16332,0.06765 0.13452,0.07716 0.25,0.125c0.32664,0.1353 0.38169,0.31756 0.625,0.375c0.27203,0.06422 0.19364,0.2444 0.625,0.375c0.11964,0.03622 0.125,0.125 0.25,0.125c0.125,0 0.25952,-0.04784 0.375,0c0.16332,0.06765 0.25,0.125 0.375,0.125c0.125,0 0.125,0 0.25,0c0.125,0 0.25,-0.125 0.375,-0.125c0,0 -0.03832,-0.05735 0.125,-0.125c0.23097,-0.09567 0.375,-0.125 0.5,-0.125c0.25,0 0.32716,-0.00952 0.375,-0.125c0.06765,-0.16332 0.25,-0.125 0.5,-0.125c0,0 0.12834,0.02872 0.25,0c0.27203,-0.06422 0.25,-0.125 0.375,-0.125c0.125,0 0.25,-0.125 0.375,-0.125c0,0 0.03661,-0.03661 0.125,-0.125c0.08839,-0.08839 0.125,-0.125 0.25,-0.125c0.125,0 0.13452,0.04784 0.25,0c0.16332,-0.06765 0.25,-0.125 0.375,-0.125c0.125,0 0.16161,-0.03661 0.25,-0.125c0.08839,-0.08839 0.25,0 0.375,0c0.25,0 0.375,0 0.375,0c0.125,0 0.46168,0.05735 0.625,0.125c0.23097,0.09567 0.375,0 0.5,0c0.125,0 0.33668,0.05735 0.5,0.125c0.11548,0.04784 0.25,0 0.375,0c0,0 0.08668,0.05735 0.25,0.125c0.11548,0.04784 0.25,0 0.25,0c0.125,0.125 0.375,0.25 0.5,0.25c0,0 0.03661,0.03661 0.125,0.125c0.08839,0.08839 0.25,0 0.375,0c0,0 0.13452,-0.04784 0.25,0c0.16332,0.06765 0.21168,0.18235 0.375,0.25c0.23097,0.09567 0.375,0.125 0.375,0.125c0.125,0 0.25,0 0.375,0c0.125,0 0.125,0 0.25,0c0.125,0 0.25,0 0.375,0c0,0 0.125,0 0.25,0c0.125,0 0.25,0 0.375,0c0.125,0 0.25,0 0.375,0c0,0 0.08668,-0.05735 0.25,-0.125c0.11549,-0.04784 0.25,0 0.25,0c0.125,0 0.25,0 0.5,0c0.125,0 0.375,0 0.5,0c0.375,0 0.5,0 0.75,0c0.125,0 0.25,0 0.375,0c0.125,0 0.25,0 0.375,0c0,0 0.13451,-0.07716 0.25,-0.125c0.16332,-0.06765 0.25,-0.125 0.25,-0.125c0.25,-0.125 0.375,-0.125 0.5,-0.125c0.125,0 0.25951,-0.07716 0.375,-0.125c0.16332,-0.06765 0.03661,-0.16161 0.125,-0.25c0.08839,-0.08839 0.25,0 0.25,0c0.125,0 0.125,-0.125 0.25,-0.125c0,0 0.125,0 0.25,0c0.125,0 0.25,0 0.25,0c0.125,-0.125 0.25,-0.125 0.375,-0.125c0.125,0 0.25,0 0.375,0c0.125,0 0.25,0 0.5,0c0.25,0 0.5,0 0.625,0c0.125,0 0.25,0.125 0.5,0.125c0.125,0 0.26903,-0.09567 0.5,0c0.16332,0.06765 0.25,0.125 0.5,0.125c0.125,0 0.5,0 0.625,0c0.375,0 0.5,0.125 0.625,0.125c0.25,0 0.37835,-0.02872 0.5,0c0.27203,0.06422 0.375,0.125 0.375,0.125c0.125,0 0.375,0.125 0.5,0.125c0,0 0.25,0.125 0.375,0.125c0.125,0 0.375,0.125 0.5,0.125c0.125,0 0.21168,0.18235 0.375,0.25c0.11549,0.04784 0.25,0 0.25,0c0.125,0 0.375,0 0.5,0c0,0 0.125,0 0.375,0c0.125,0 0.25,0 0.5,0c0.125,0 0.125,-0.125 0.25,-0.125c0.125,0 0.25,0 0.375,0c0.125,0 0.32322,0.05178 0.5,-0.125c0.08839,-0.08839 0.25,-0.125 0.375,-0.125c0.125,0 0.25,0 0.375,0c0.125,0 0.25,-0.125 0.375,-0.125c0.125,0 0.25,0 0.375,0c0,0 0.125,-0.125 0.25,-0.125c0.125,0 0.25951,0.04784 0.375,0c0.16332,-0.06765 0.375,-0.25 0.5,-0.25c0.125,0 0.375,0 0.5,0c0.125,0 0.16161,-0.03661 0.25,-0.125c0.08839,-0.08839 0,0 -0.125,0c-0.125,0 -0.375,0 -0.75,0c-0.25,0 -0.5,0 -1,0c-0.25,0 -0.97797,-0.06078 -1.25,-0.125c-0.24331,-0.05744 -0.25,0 -0.5,0c-0.25,0 -0.375,-0.125 -0.625,-0.125c-0.125,0 -0.125,-0.125 -0.375,-0.125c-0.125,0 -0.25,0 -0.5,0c-0.25,0 -0.25,0 -0.5,0c-0.25,0 -0.25,0 -0.75,0c0,0 -0.25,0 -0.5,-0.125c0,0 -0.25,0 -0.5,0c-0.25,0 -0.5,0 -0.75,0c-0.25,0 -0.5,0 -0.75,0c-0.375,0 -0.5,0 -0.875,0c-0.125,0 -0.5,0 -0.875,0c-0.25,0 -0.625,0 -0.75,0c-0.375,0 -0.5,0 -1,0c-0.25,0 -0.5,-0.125 -0.625,-0.125c-0.25,0 -0.375,0 -0.75,0c-0.25,0 -0.625,0 -0.875,0c-0.25,0 -0.5,0 -0.75,0c-0.5,0 -0.625,0 -0.75,0c-0.25,0 -0.47797,-0.06078 -0.75,-0.125c-0.36497,-0.08616 -0.5,0 -0.75,0c-0.25,0 -0.375,0 -0.75,0c-0.375,0 -0.5,-0.125 -0.875,-0.125c-0.125,0 -0.375,0 -0.625,0c-0.5,0 -0.5,0 -0.875,0c-0.125,0 -0.375,0 -0.625,0c-0.25,0 -0.625,0 -1,0c-0.125,0 -0.5,0 -0.5,0c-0.25,0 -0.75,0 -1,0c-0.25,0 -0.5,0 -0.75,0c-0.25,0 -0.75,0 -1,0c-0.25,0 -0.625,0 -0.75,0c-0.25,0 -0.75,0 -0.875,0c-0.125,0 -0.375,0 -0.625,0c-0.25,0 -0.625,0 -1,0c-0.125,0 -0.5,0 -0.625,0c-0.375,0 -0.875,0 -1.125,0c-0.25,0 -0.5,-0.125 -0.75,-0.125c-0.25,0 -0.5,0 -0.75,0c-0.25,0 -0.25,0 -0.5,0c-0.25,0 -0.25,0 -0.5,0c-0.125,0 -0.25,0 -0.5,0c-0.125,0 -0.25,0 -0.25,0c-0.125,0 -0.375,0 -0.5,0c0,0 -0.25,0 -0.5,0c0,0 -0.125,0 -0.375,0c-0.125,0 -0.5,0 -0.625,0c-0.125,0 -0.25,0 -0.375,0c-0.125,0 -0.375,0 -0.5,0c-0.125,0 -0.125,0 -0.25,0l-0.125,0" id="svg_21" stroke-width="2" stroke="#7cfc00" fill="none"/>
  <path d="m0.125,1.2c0.125,0 0.25,0 0.375,0c0,0 0.03661,0.03661 0.125,0.125c0.08839,0.08839 0.28661,-0.08839 0.375,0c0.08839,0.08839 0.125,0.125 0.25,0.125c0.125,0 0.25,0 0.25,0c0.125,0 0.25,0 0.375,0c0.125,0 0.03661,-0.03661 0.125,-0.125c0.08839,-0.08839 0.125,-0.125 0.25,-0.125c0.125,0 0.125,-0.125 0.25,-0.125c0,0 0.125,-0.125 0.25,-0.125c0.125,0 0.25,-0.125 0.25,-0.125c0,-0.125 0.125,-0.125 0.25,-0.125c0.125,0 0.25,0 0.25,0c0.125,0 0.375,-0.125 0.5,-0.125c0,0 0.125,0 0.375,0c0.125,0 0.125,0 0.25,0c0.125,0 0.125,-0.125 0.25,-0.125c0.125,0 0.125,0 0.25,0c0.125,0 0.25,0 0.375,0c0,0 0.125,0 0.375,0c0.125,0 0.125,0 0.25,0c0.25,0 0.375,0.125 0.375,0.125c0.125,0 0.25,0 0.5,0c0,0 0.03661,0.03661 0.125,0.125c0.08839,0.08839 0.25,0 0.375,0c0,0 0.125,0 0.25,0c0.125,0 0.25,0 0.375,0c0.125,0 0.25,0 0.375,0c0,0 0.125,0 0.25,0c0.125,0 0.25,0 0.25,0c0.125,0 0.25,0 0.375,0c0.125,0 0.125,0 0.25,0c0.125,0 0.25,0 0.375,0c0,0 0.125,0 0.25,0c0.125,0 0.25,0 0.25,0c0.125,0 0.25,0 0.5,0c0,0 0.125,0 0.375,0c0.125,0 0.125,0 0.25,0c0.125,0 0.25,0 0.375,0c0,0 0.14403,0.09567 0.375,0c0.16332,-0.06765 0.125,-0.125 0.25,-0.125c0.125,0 0.25,0 0.375,0c0.125,0 0.25,0 0.375,0c0.125,0 0.125,0 0.25,0c0.125,0 0.25,0 0.375,0c0,0 0.25,0 0.375,0c0.125,0 0.125,0 0.375,0c0.25,0 0.375,0 0.625,0c0.125,0 0.25,0 0.375,0c0.125,0 0.375,0 0.5,0c0.25,0 0.25,0 0.5,0c0.125,0 0.375,0 0.5,0c0.25,0 0.25,0 0.375,0c0.125,0 0.25,0 0.375,0c0.125,0 0.25,0 0.375,0c0.125,0 0.44822,-0.17678 0.625,0c0.08839,0.08839 0.125,0.125 0.375,0.125c0.125,0 0.375,0 0.625,0c0.125,0 0.25,0.125 0.5,0.125c0.125,0 0.41161,-0.08839 0.5,0c0.08839,0.08839 0.125,0.125 0.25,0.125c0.125,0 0.25,0.125 0.5,0.125c0.125,0 0.28661,-0.08839 0.375,0c0.08839,0.08839 0.125,0.125 0.25,0.125c0.125,0 0.125,0 0.25,0c0.125,0 0.25,0 0.25,0c0.125,0 0.16161,-0.08839 0.25,0c0.08839,0.08839 0.125,0.125 0.25,0.125c0.125,0 0.125,0 0.25,0c0.125,0 0.25,0 0.375,0.125c0,0 0.125,0 0.25,0c0.125,0 0.25,0 0.25,0c0.125,0 0.21168,0.05735 0.375,0.125c0.11548,0.04784 0.125,0 0.25,0c0.125,0 0.25,0 0.375,0c0,0 0.125,0 0.375,0c0.125,0 0.125,-0.125 0.25,-0.125c0.125,0 0.30735,0.03832 0.375,-0.125c0.04784,-0.11548 0.125,-0.125 0.25,-0.125c0.125,0 0.25,0 0.25,0c0,0 0.00952,-0.07716 0.125,-0.125c0.16332,-0.06765 0.25,-0.125 0.375,-0.125c0,0 0.03661,-0.03661 0.125,-0.125c0.08839,-0.08839 0.125,-0.125 0.25,-0.125c0.125,0 0.13452,0.04784 0.25,0c0.16332,-0.06765 0.25,-0.125 0.375,-0.125c0,0 0,-0.125 0.25,-0.125c0.125,0 0.21168,-0.18235 0.375,-0.25c0.11548,-0.04784 0.28661,-0.03661 0.375,-0.125c0.08839,-0.08839 0.375,0 0.5,0c0,0 0.125,-0.125 0.25,-0.125c0.125,0 0.21168,-0.18235 0.375,-0.25c0.11548,-0.04784 0.25,0 0.375,0c0,0 0.125,-0.125 0.25,-0.125c0.125,0 0.25952,-0.07716 0.375,-0.125c0.32664,-0.1353 0.375,-0.25 0.375,-0.25c0.125,-0.125 0.27325,-0.21157 0.5,-0.375c0.14341,-0.10336 0.125,-0.125 0.25,-0.25l0.125,0" id="svg_22" stroke-width="2" stroke="#7cfc00" fill="none"/>
 </g>
</svg>