<svg width="1600" height="900" xmlns="http://www.w3.org/2000/svg">
 <g>
  <title>Layer 1</title>
  <polygon id="svg_2" points="908.9999504089355,452.0000021457672 490.99995040893555,902.0000021457672 1347.9999504089355,902.0000021457672 " fill="#cc1818"/>
  <polygon id="svg_3" points="908.9999504089355,454.0000042915344 824.899974822998,904.0000042915344 1347.9999504089355,904.0000042915344 " fill="#aa0000"/>
  <polygon id="svg_4" points="-112.00005340576172,928.000058889389 345.9999542236328,690.000058889389 763.9999542236328,928.000058889389 " fill="#d6002b"/>
  <polygon id="svg_5" points="-123.00724935531616,946.0003142356873 -62.00724935531616,708.0003142356873 355.99275827407837,946.0003142356873 " fill="#b10022" stroke="null" transform="rotate(-57.049 116.493 827)"/>
  <polygon id="svg_6" points="1184.999979019165,546 1533.999979019165,900 857.999979019165,900 " fill="#d9004b"/>
  <polygon id="svg_7" points="1184.9999809265137,546 1533.9999809265137,900 1143.9999809265137,900 " fill="#b2003d"/>
  <polygon id="svg_8" points="641 695 886 900 367 900" fill="#d3006c"/>
  <polygon id="svg_9" points="310.4972274303436,954.8488509654999 373.3461043834686,716.1525619029999 658.4939925670624,954.8488509654999 " fill="#ac0057" stroke="null" transform="rotate(-76.7909 484.496 835.501)"/>
  <polygon id="svg_10" points="1653.99995803833,936.0000171661377 1344.99995803833,668.0000171661377 1039.99995803833,936.0000171661377 " fill="#c4008c"/>
  <polygon id="svg_11" points="1653.9999978542328,938.0001242160797 1344.9999978542328,670.0000631809235 1308.9999978542328,938.0001242160797 " fill="#9e0071"/>
  <polygon id="svg_12" points="1210 900 971 687 725 900" fill="#aa00aa"/>
  <polygon id="svg_13" points="943 900 1210 900 971 687" fill="#880088"/>
  <polygon id="svg_14" points="1498.0015890598297,921.9999957084656 1956.0015890598297,683.9999957084656 2374.001711130142,921.9999957084656 " fill="#d6002b"/>
  <ellipse id="sun" stroke-width="0" fill="#fefcd7" stroke="#000000" cx="750.4272" cy="432.81551" rx="80" ry="80"/>
  <ellipse fill="#1b1e23" cx="772.0276" cy="440.81564" id="svg_16" rx="80" ry="80" stroke-width="0" stroke="#000000"/>
 </g>

</svg>