<svg width="1600" height="900" xmlns="http://www.w3.org/2000/svg">
 <g>
  <title>Layer 1</title>
  <polygon fill="#cc3f3f" points="908.9999504089355,452.0000021457672 490.99995040893555,902.0000021457672 1347.9999504089355,902.0000021457672 " id="svg_2"/>
  <polygon fill="#a82121" points="908.9999504089355,454.0000042915344 824.899974822998,904.0000042915344 1347.9999504089355,904.0000042915344 " id="svg_3"/>
  <polygon fill="#d33454" points="-112.00005340576172,928.000058889389 345.9999542236328,690.000058889389 763.9999542236328,928.000058889389 " id="svg_4"/>
  <polygon transform="rotate(-57.049 118.493 827)" stroke="null" fill="#af233c" points="-121.00722646713257,946.0003051757812 -60.00722646713257,708.0003051757812 357.9927887916565,946.0003051757812 " id="svg_5"/>
  <polygon fill="#d8366c" points="1184.999979019165,546 1533.999979019165,900 857.999979019165,900 " id="svg_6"/>
  <polygon fill="#af2352" points="1185,543.9999785423279 1534,897.9999785423279 1144,897.9999785423279 " id="svg_7"/>
  <polygon fill="#d13482" points="641 695 886 900 367 900" id="svg_8"/>
  <polygon transform="rotate(-76.7909 484.496 835.501)" stroke="null" fill="#aa2266" points="310.4972274303436,954.8488509654999 373.3461043834686,716.1525619029999 658.4939925670624,954.8488509654999 " id="svg_9"/>
  <polygon fill="#c13096" points="1653.99995803833,936.0000171661377 1344.99995803833,668.0000171661377 1039.99995803833,936.0000171661377 " id="svg_10"/>
  <polygon fill="#9b1f76" points="1653.9999978542328,938.0001242160797 1344.9999978542328,670.0000631809235 1308.9999978542328,938.0001242160797 " id="svg_11"/>
  <polygon fill="#a82aa8" points="1210 900 971 687 725 900" id="svg_12"/>
  <polygon fill="#871b87" points="943 900 1210 900 971 687" id="svg_13"/>
  <polygon fill="#d33454" points="1498.0015890598297,921.9999957084656 1956.0015890598297,683.9999957084656 2374.001711130142,921.9999957084656 " id="svg_14"/>
  <ellipse ry="80" rx="80" id="svg_15" cy="431.81551" cx="750.4272" stroke="#000000" fill="#000000" stroke-width="0" fill-opacity="0"/>
  <ellipse stroke="#000000" stroke-width="0" ry="80" rx="80" id="svg_16" cy="439.81564" cx="772.0276" fill="#fdb813"/>
 </g>

</svg>